<?xml version="1.0" standalone="no"?><!DOCTYPE svg PUBLIC "-//W3C//DTD SVG 1.1//EN" "http://www.w3.org/Graphics/SVG/1.1/DTD/svg11.dtd"><svg t="1676959344514" class="icon" viewBox="0 0 1024 1024" version="1.1" xmlns="http://www.w3.org/2000/svg" p-id="1079" xmlns:xlink="http://www.w3.org/1999/xlink" width="200" height="200"><path d="M715.9 280.5c-1.8 0-3.7-0.1-5.6-0.2-17-1.3-34.3-8.4-48.8-20.2-24.7-20.1-33.4-47.1-21-65.8l0.1-0.1C649.9 180.3 661.4 166.5 676 168.3c1.7 0.2 3.9 0.7 6.2 1.8 38.6-26.2 63.5-51.1 74.2-73.9l0.1-0.3c6.6-13.4 15.2-15.9 21.3-15.6 4.8 0.2 13.8 2.6 19.1 16.1 6.2 15.7 7.8 46.4 4 76.3-3.4 26.6-12.3 63.1-35.2 86.4-13.8 14-30.9 21.4-49.8 21.4z" fill="#525252" p-id="1080"></path><path d="M296.2 280.5c-18.8 0-35.9-7.3-49.8-21.4C223.5 235.8 214.6 199.3 211.2 172.7c-3.8-29.9-2.2-60.6 4-76.4 2.3-5.8 7.8-15.6 19.1-16.1 6-0.3 14.6 2.3 21.3 15.6l0.1 0.3c10.7 22.9 35.6 47.8 74.2 74 2.3-1.1 4.5-1.6 6.2-1.8 14.6-1.8 26.1 12.1 35.4 25.9l0.1 0.1c12.4 18.7 3.7 45.7-21 65.8-14.5 11.7-31.8 18.9-48.8 20.2-1.9 0.1-3.8 0.2-5.6 0.2z" fill="#525252" p-id="1081"></path><path d="M200.1 373.3c-2.1 1.7-4.2 3.1-7 4-33.9 20.2-78 8.4-98-27-1.8-2.5-3.5-5.9-5-9-12.7-35.5 5.1-74.4 40-86.9l199-73.9c19.6-7.4 41.1-0.3 52 17 34.9-15 74.7-22 123-22 45.4 0 86.3 10.7 123 30 0.6-2.6 1.8-5.2 4-7 10.4-18.1 32.2-25.5 52-18l199 73.9c34.9 12.5 52.7 51.4 40 86.9-1.5 3.1-3.2 6.5-5 9-20 35.3-64.1 47.2-98 27-2.8-0.9-4.9-2.3-7-4-45.8-41.3-63.4-54-53-37.9 20.8 26.2 68.2 129.2 94 205.7 69.2 199.2-156.8 364.5-349 364.5-194 0-434.5-124-344-375.5 26.7-73.9 66.5-163.7 78-184.7 8.1-12.3-4.6-2.9-38 27.9z" fill="#CCBEB4" p-id="1082"></path><path d="M504.1 920.5c-63.3 0-129.7-12.9-187-36.5C252.9 857.7 201.6 819.1 168.8 772.3c-23.2-33.1-37.3-70-41.8-109.8-4.8-42.9 1.6-89.3 19-137.7 16.5-45.7 37.6-96.6 54.3-134.4-0.3 0.1-0.5 0.2-0.8 0.3-19.5 11.2-42.1 14.1-64 8.4-22.5-6-41.3-20.5-53.1-40.8-2.1-3-3.7-6.2-5.1-9.1l-1.1-2.1-0.3-0.9c-7.6-21.2-6.5-44 3-64.2 9.3-19.7 25.6-34.5 46-41.8L323.8 166.5c22.2-8.4 46.1-3 62 13 33.8-12.8 72.6-19 118.3-19 41.4 0 80.8 8.5 117.3 25.4 15-20.7 42.2-28.9 67-19.5l198.9 73.9c20.3 7.3 36.7 22.2 46 41.8 9.5 20.2 10.6 43 3 64.2l-0.3 0.9-1.1 2.1c-1.4 2.9-3 6.1-5.1 9.1-11.8 20.4-30.6 34.9-53.1 40.8-21.8 5.8-44.5 2.8-64-8.4-2.8-1.1-5.1-2.4-7-3.7 21.5 43.9 45.6 101.4 61.6 149 13.6 39.2 17 78.8 10.1 117.8-6.4 35.9-21.4 70.6-44.6 103.2-34.1 48-84.2 89-144.7 118.7-58.7 28.9-124 44.7-184 44.7zM250.9 353c-12 22.3-51.2 111.2-76.8 182.1-15.9 44-21.7 85.8-17.4 124.2 3.9 34.7 16.2 67 36.5 95.9 29.5 42 76.3 77 135.2 101.2 53.8 22.1 116.2 34.2 175.6 34.2 116 0 241.1-62 304.2-150.7 30-42.2 59.7-110.1 30.6-193.8v-0.1c-26.6-78.9-73.3-178.2-91.5-201.2l-0.4-0.5-0.4-0.6c-1.8-2.7-3-5-3.8-7-3.5-8.6-0.3-15.6 4-19.2 4.2-3.6 11.5-6.4 22.4 0.4 3.1 1.9 7.1 4.9 12.3 9 9.4 7.5 23 19.3 40.5 35.1 0.9 0.7 1.4 1 2 1.2l1.5 0.5 1.4 0.8c12.8 7.6 27.7 9.7 42.2 5.9 14.9-3.9 27.3-13.7 35.1-27.3l0.5-0.8 0.6-0.7c0.8-1.1 2-3.5 3-5.4l0.3-0.5c4.6-13.4 3.8-27.8-2.2-40.4-5.9-12.5-16.2-21.9-29-26.5l-0.2-0.1-199.4-74.1c-13.1-5-27-0.3-33.7 11.4l-1.3 2.3-1.2 1-4.4 18.4-17.1-9c-35.7-18.7-74.7-28.2-116-28.2-46.3 0-84.6 6.8-117.1 20.8l-11.8 5.1-6.8-10.8c-7.2-11.3-21.1-15.8-34-11h-0.1l-199.2 74c-12.8 4.6-23.2 14-29 26.5-6 12.7-6.8 27-2.2 40.4l0.3 0.5c1 1.9 2.2 4.4 3 5.4l0.6 0.7 0.5 0.8c7.7 13.7 20.2 23.4 35.1 27.3 14.4 3.8 29.4 1.7 42.2-5.9l1.4-0.8 1.5-0.5c0.6-0.2 1.1-0.4 1.9-1.1 12.8-11.8 22.4-20.3 29.3-26 3.8-3.1 6.8-5.4 9.2-6.9 10.6-6.9 17.9-3.1 21.3-0.2 4.1 3.5 7.5 10.6 3.8 19-0.7 1.6-1.7 3.2-3 5.2z" fill="#525252" p-id="1083"></path><path d="M356.1 520.5m-84 0a84 84 0 1 0 168 0 84 84 0 1 0-168 0Z" fill="#FFFFFF" p-id="1084"></path><path d="M656.1 520.5m-84 0a84 84 0 1 0 168 0 84 84 0 1 0-168 0Z" fill="#FFFFFF" p-id="1085"></path><path d="M611.1 329.5c21.4 0.3 40.4-9.8 52-25.1 32-1.6 58-26.5 58-57.2 0-20.5-11.9-38.6-30-49.2 0.8-2.3 1-5.1 1-8 0-31.6-28-57.3-62-57.2-19.1 0-36.1 7.6-48 20.1-15-24.7-43-41.4-75-43.2h-2c-32 1.7-60 18.5-75 43.2-11.9-12.5-28.9-20.1-48-20.1-34 0-62 25.6-62 57.2 0 2.9 0.2 5.8 1 8-18.1 10.6-30 28.7-30 49.2 0 30.7 26 55.7 58 57.2 11.6 15.3 30.6 25.4 52 25.1 13.2 0.3 25.4-3.4 36-9 17.4 13.9 41.4 23.4 68 25.1h2c26.6-1.8 50.6-11.2 68-25.1 10.5 5.6 22.7 9.2 36 9z" fill="#FFFFFF" p-id="1086"></path><path d="M356.1 427.5c-51.3 0-93 41.7-93 93s41.7 93 93 93 93-41.7 93-93-41.8-93-93-93z m0 168c-41.4 0-75-33.6-75-75s33.6-75 75-75 75 33.6 75 75-33.7 75-75 75zM656.1 427.5c-51.3 0-93 41.7-93 93s41.7 93 93 93 93-41.7 93-93-41.8-93-93-93z m0 168c-41.4 0-75-33.6-75-75s33.6-75 75-75 75 33.6 75 75-33.7 75-75 75zM540.1 713.5H474c-4.9 0-9.4 2.5-12 6.5-4.3 6.6-2.4 15.5 4.3 19.7l22.7 14.7c2.6 1.6 5.3 2.9 8.1 3.8v153.3c0 5 4 9 9 9s9-4 9-9V758.8c3.5-0.9 6.9-2.3 10-4.3l22.7-14.7c4.1-2.6 6.5-7.2 6.5-12 0.1-7.9-6.3-14.3-14.2-14.3z" fill="#525252" p-id="1087"></path><path d="M356.1 520.5m-25 0a25 25 0 1 0 50 0 25 25 0 1 0-50 0Z" fill="#525252" p-id="1088"></path><path d="M656.1 520.5m-25 0a25 25 0 1 0 50 0 25 25 0 1 0-50 0Z" fill="#525252" p-id="1089"></path><path d="M344.5 313c13.7 16 34.2 25.4 55.7 25.4h0.8c11.9 0.2 23.7-2.3 35.1-7.5 19 13.6 43 21.9 68.4 23.6H507.7c25.4-1.7 49.4-10 68.4-23.6 11.3 5.2 23.1 7.7 35.1 7.5h0.8c21.6 0 42-9.4 55.7-25.4 35.3-3.7 62.4-31.9 62.4-65.9 0-21.1-10.8-40.7-29.1-53.6 0.1-1.2 0.1-2.4 0.1-3.7 0-17.8-7.5-34.5-21.1-47.1-13.4-12.3-31.1-19.1-49.8-19.1h-0.1c-17.3 0-33.4 5.5-46.4 15.6-17.7-22.7-45.4-37-76.1-38.6h-3c-30.7 1.7-58.4 15.9-76.1 38.6-13-10.1-29.1-15.6-46.3-15.6h-0.1c-18.7 0-36.4 6.8-49.8 19.1C318.6 155.4 311.1 172.1 311.1 189.9c0 1.3 0 2.5 0.1 3.7-18.4 12.8-29.1 32.4-29.1 53.5 0 34 27.1 62.2 62.4 65.9zM325.6 205.7l6.3-3.7-2.4-7c-0.2-0.6-0.5-2-0.5-5.1 0-12.7 5.4-24.7 15.3-33.9 10.1-9.3 23.4-14.4 37.6-14.4h0.1c16.1 0 30.8 6.1 41.4 17.3l8.1 8.5 6.1-10c13.8-22.7 39.1-37.2 67.6-38.9h1.5c28.5 1.6 53.7 16.1 67.6 38.9l6.1 10 8.1-8.5c10.6-11.2 25.3-17.3 41.4-17.3h0.1c14.2 0 27.6 5.1 37.6 14.4 9.9 9.1 15.3 21.1 15.3 33.9 0 3.1-0.3 4.6-0.5 5.1l-2.4 7 6.3 3.7c16 9.4 25.5 24.8 25.5 41.4 0 25.7-21.7 46.9-49.4 48.3l-4.2 0.2-2.5 3.4C645.3 312.7 628.6 320.7 611 320.5H610.7c-10.7 0.2-21.3-2.5-31.5-8L574 309.7l-4.6 3.7c-16.7 13.3-39 21.5-62.7 23.1h-1.4c-23.7-1.6-46-9.8-62.7-23.1L438 309.7l-5.2 2.8c-10.2 5.5-20.9 8.2-31.6 8h-0.2c-17.6 0.2-34.3-7.8-44.7-21.5l-2.5-3.4-4.2-0.2c-27.7-1.4-49.4-22.6-49.4-48.3-0.1-16.6 9.4-32.1 25.4-41.4z" fill="#525252" p-id="1090"></path></svg>